<svg width="439" height="65" fill="none" xmlns="http://www.w3.org/2000/svg"><g filter="url(#a)"><path d="M28.375 56.875V48.75H20.25v-8.125h-8.125V32.5H4v-8.125h8.125V16.25h8.125V8.125h8.125V0h16.25v8.125H36.5v8.125h-8.125v8.125H20.25V32.5h8.125v8.125H36.5v8.125h8.125v8.125h-16.25zM117.75 0v8.125h-8.125V0h8.125zM101.5 8.125h8.125v8.125H101.5V8.125zm-8.125 8.125h8.125v8.125h-8.125V16.25zm-8.125 8.125h8.125V32.5H85.25v-8.125zM77.125 32.5h8.125v8.125h-8.125V32.5zM69 40.625h8.125v8.125H69v-8.125zm-8.125 8.125H69v8.125h-8.125V48.75zm65 8.125V0h16.25v24.375H166.5V0h16.25v56.875H166.5V32.5h-24.375v24.375h-16.25zm89.375 0V8.125H199V0h48.75v8.125H231.5v48.75h-16.25zm40.625 0V0h16.25v8.125h8.125v8.125h8.125V8.125h8.125V0h16.25v56.875H296.5v-32.5h-8.125v16.25h-8.125v-16.25h-8.125v32.5h-16.25zm73.125 0V0h16.25v48.75h32.5v8.125H329zm65 0V48.75h8.125v-8.125h8.125V32.5h8.125v-8.125h-8.125V16.25h-8.125V8.125H394V0h16.25v8.125h8.125v8.125h8.125v8.125h8.125V32.5H426.5v8.125h-8.125v8.125h-8.125v8.125H394z" fill="#000"/></g><defs><filter id="a" x="0" y="0" width="438.625" height="64.875" filterUnits="userSpaceOnUse" color-interpolation-filters="sRGB"><feFlood flood-opacity="0" result="BackgroundImageFix"/><feColorMatrix in="SourceAlpha" values="0 0 0 0 0 0 0 0 0 0 0 0 0 0 0 0 0 0 127 0" result="hardAlpha"/><feOffset dy="4"/><feGaussianBlur stdDeviation="2"/><feComposite in2="hardAlpha" operator="out"/><feColorMatrix values="0 0 0 0 0 0 0 0 0 0 0 0 0 0 0 0 0 0 0.25 0"/><feBlend in2="BackgroundImageFix" result="effect1_dropShadow_0_637"/><feBlend in="SourceGraphic" in2="effect1_dropShadow_0_637" result="shape"/></filter></defs></svg>
